<mxfile host="app.diagrams.net" agent="Mozilla/5.0 (X11; Linux x86_64; rv:128.0) Gecko/20100101 Firefox/128.0" version="26.2.13">
  <diagram name="Page-1" id="U523u34FnvEOH1GOijIK">
    <mxGraphModel dx="874" dy="334" grid="1" gridSize="10" guides="1" tooltips="1" connect="1" arrows="1" fold="1" page="1" pageScale="1" pageWidth="850" pageHeight="1100" math="0" shadow="0">
      <root>
        <mxCell id="0" />
        <mxCell id="1" parent="0" />
        <mxCell id="8MCVu4ZB8phrQEy91H7J-2" value="" style="image;html=1;image=img/lib/clip_art/computers/Laptop_128x128.png" vertex="1" parent="1">
          <mxGeometry x="370" y="330" width="80" height="80" as="geometry" />
        </mxCell>
        <mxCell id="8MCVu4ZB8phrQEy91H7J-3" value="" style="image;html=1;image=img/lib/clip_art/computers/Laptop_128x128.png" vertex="1" parent="1">
          <mxGeometry x="680" y="160" width="80" height="80" as="geometry" />
        </mxCell>
        <mxCell id="8MCVu4ZB8phrQEy91H7J-4" value="" style="image;html=1;image=img/lib/clip_art/computers/Laptop_128x128.png" vertex="1" parent="1">
          <mxGeometry x="50" y="170" width="80" height="80" as="geometry" />
        </mxCell>
        <mxCell id="8MCVu4ZB8phrQEy91H7J-5" value="" style="endArrow=classic;html=1;rounded=0;" edge="1" parent="1">
          <mxGeometry relative="1" as="geometry">
            <mxPoint x="160" y="200" as="sourcePoint" />
            <mxPoint x="640" y="200" as="targetPoint" />
            <Array as="points" />
          </mxGeometry>
        </mxCell>
        <mxCell id="8MCVu4ZB8phrQEy91H7J-6" value="Sniffer" style="edgeLabel;resizable=0;html=1;;align=center;verticalAlign=middle;fontSize=14;fontStyle=3" connectable="0" vertex="1" parent="8MCVu4ZB8phrQEy91H7J-5">
          <mxGeometry relative="1" as="geometry" />
        </mxCell>
        <mxCell id="8MCVu4ZB8phrQEy91H7J-7" value="Sender" style="edgeLabel;resizable=0;html=1;;align=left;verticalAlign=bottom;fontSize=14;fontStyle=1" connectable="0" vertex="1" parent="8MCVu4ZB8phrQEy91H7J-5">
          <mxGeometry x="-1" relative="1" as="geometry" />
        </mxCell>
        <mxCell id="8MCVu4ZB8phrQEy91H7J-8" value="Receiver" style="edgeLabel;resizable=0;html=1;;align=right;verticalAlign=bottom;fontSize=14;fontStyle=1" connectable="0" vertex="1" parent="8MCVu4ZB8phrQEy91H7J-5">
          <mxGeometry x="1" relative="1" as="geometry" />
        </mxCell>
        <mxCell id="8MCVu4ZB8phrQEy91H7J-11" value="" style="endArrow=classic;startArrow=classic;html=1;rounded=0;" edge="1" parent="1">
          <mxGeometry width="50" height="50" relative="1" as="geometry">
            <mxPoint x="400" y="320" as="sourcePoint" />
            <mxPoint x="400" y="220" as="targetPoint" />
          </mxGeometry>
        </mxCell>
        <mxCell id="8MCVu4ZB8phrQEy91H7J-16" value="&lt;font style=&quot;font-size: 14px;&quot;&gt;&lt;b&gt;Source IP&lt;/b&gt;&lt;/font&gt;" style="text;html=1;align=center;verticalAlign=middle;whiteSpace=wrap;rounded=0;labelBackgroundColor=none;" vertex="1" parent="1">
          <mxGeometry x="60" y="250" width="70" height="30" as="geometry" />
        </mxCell>
        <mxCell id="8MCVu4ZB8phrQEy91H7J-17" value="&lt;b&gt;&lt;font style=&quot;font-size: 14px;&quot;&gt;Destination IP&lt;/font&gt;&lt;/b&gt;" style="text;html=1;align=center;verticalAlign=middle;whiteSpace=wrap;rounded=0;" vertex="1" parent="1">
          <mxGeometry x="680" y="250" width="100" height="30" as="geometry" />
        </mxCell>
        <mxCell id="8MCVu4ZB8phrQEy91H7J-18" value="&lt;b&gt;&lt;font style=&quot;font-size: 14px;&quot;&gt;TOOLS: Python &amp;amp; Scapy&lt;/font&gt;&lt;/b&gt;" style="text;html=1;align=center;verticalAlign=middle;whiteSpace=wrap;rounded=0;" vertex="1" parent="1">
          <mxGeometry x="340" y="420" width="180" height="30" as="geometry" />
        </mxCell>
      </root>
    </mxGraphModel>
  </diagram>
</mxfile>
